<?xml version="1.0" encoding="UTF-8" standalone="no"?>
<svg
   xmlns:dc="http://purl.org/dc/elements/1.1/"
   xmlns:cc="http://creativecommons.org/ns#"
   xmlns:rdf="http://www.w3.org/1999/02/22-rdf-syntax-ns#"
   xmlns:svg="http://www.w3.org/2000/svg"
   xmlns="http://www.w3.org/2000/svg"
   xmlns:xlink="http://www.w3.org/1999/xlink"
   xmlns:sodipodi="http://sodipodi.sourceforge.net/DTD/sodipodi-0.dtd"
   xmlns:inkscape="http://www.inkscape.org/namespaces/inkscape"
   version="1.1"
   width="64"
   height="64"
   id="svg6333"
   inkscape:version="0.91 r13725"
   sodipodi:docname="srtnr.svg">
  <sodipodi:namedview
     pagecolor="#ffffff"
     bordercolor="#666666"
     borderopacity="1"
     objecttolerance="10"
     gridtolerance="10"
     guidetolerance="10"
     inkscape:pageopacity="0"
     inkscape:pageshadow="2"
     inkscape:window-width="1920"
     inkscape:window-height="1017"
     id="namedview49"
     showgrid="false"
     inkscape:zoom="1"
     inkscape:cx="-189.90955"
     inkscape:cy="113.91537"
     inkscape:window-x="0"
     inkscape:window-y="30"
     inkscape:window-maximized="1"
     inkscape:current-layer="svg6333" />
  <defs
     id="defs6335">
    <linearGradient
       x1="167.98311"
       y1="8.50811"
       x2="167.98311"
       y2="54.780239"
       id="linearGradient5809"
       xlink:href="#linearGradient5803"
       gradientUnits="userSpaceOnUse"
       gradientTransform="translate(-130,1.759402e-6)" />
    <linearGradient
       id="linearGradient5803">
      <stop
         id="stop5805"
         style="stop-color:#fff5ef;stop-opacity:1"
         offset="0" />
      <stop
         id="stop5807"
         style="stop-color:#fef8dd;stop-opacity:1"
         offset="1" />
    </linearGradient>
    <linearGradient
       x1="27.096104"
       y1="10.880992"
       x2="27.096104"
       y2="39.150768"
       id="linearGradient5801"
       xlink:href="#linearGradient3895-9-0-3-5-2-0-4-9"
       gradientUnits="userSpaceOnUse"
       gradientTransform="matrix(1.4102564,0,0,1.4102564,0.391129,-2.2559982)" />
    <linearGradient
       id="linearGradient3895-9-0-3-5-2-0-4-9">
      <stop
         id="stop3897-0-5-7-89-6-6-7-0"
         style="stop-color:#dc5639;stop-opacity:1"
         offset="0" />
      <stop
         id="stop3899-8-7-06-3-8-3-8-0"
         style="stop-color:#9d0f0f;stop-opacity:1"
         offset="1" />
    </linearGradient>
    <linearGradient
       x1="23.99999"
       y1="4.999989"
       x2="23.99999"
       y2="43"
       id="linearGradient3381-5-4"
       xlink:href="#linearGradient3924-2-2-5-8"
       gradientUnits="userSpaceOnUse"
       gradientTransform="matrix(1.4324324,0,0,1.4362832,-2.378381,-2.4707782)" />
    <linearGradient
       id="linearGradient3924-2-2-5-8">
      <stop
         id="stop3926-9-4-9-6"
         style="stop-color:#ffffff;stop-opacity:1"
         offset="0" />
      <stop
         id="stop3928-9-8-6-5"
         style="stop-color:#ffffff;stop-opacity:0.23529412"
         offset="0.06316455" />
      <stop
         id="stop3930-3-5-1-7"
         style="stop-color:#ffffff;stop-opacity:0.15686275"
         offset="0.95056331" />
      <stop
         id="stop3932-8-0-4-8"
         style="stop-color:#ffffff;stop-opacity:0.39215687"
         offset="1" />
    </linearGradient>
    <radialGradient
       cx="6.7304144"
       cy="9.9571075"
       r="12.671875"
       fx="6.2001843"
       fy="9.9571075"
       id="radialGradient3402-7-1-6"
       xlink:href="#linearGradient2867-449-88-871-390-598-476-591-434-148-57-177-8-3-3-6-4-8-8-8"
       gradientUnits="userSpaceOnUse"
       gradientTransform="matrix(0,13.393984,-16.443533,0,196.90205,-114.89368)" />
    <linearGradient
       id="linearGradient2867-449-88-871-390-598-476-591-434-148-57-177-8-3-3-6-4-8-8-8">
      <stop
         id="stop3750-1-0-7-6-6-1-3-9"
         style="stop-color:#ffcd7d;stop-opacity:1"
         offset="0" />
      <stop
         id="stop3752-3-7-4-0-32-8-923-0"
         style="stop-color:#fc8f36;stop-opacity:1"
         offset="0.26238" />
      <stop
         id="stop3754-1-8-5-2-7-6-7-1"
         style="stop-color:#e23a0e;stop-opacity:1"
         offset="0.704952" />
      <stop
         id="stop3756-1-6-2-6-6-1-96-6"
         style="stop-color:#ac441f;stop-opacity:1"
         offset="1" />
    </linearGradient>
    <radialGradient
       cx="4.9929786"
       cy="43.5"
       r="2.5"
       fx="4.9929786"
       fy="43.5"
       id="radialGradient3337-2-2"
       xlink:href="#linearGradient3688-166-749-4-0-3-8"
       gradientUnits="userSpaceOnUse"
       gradientTransform="matrix(2.003784,0,0,1.4,27.98813,-17.4)" />
    <linearGradient
       id="linearGradient3688-166-749-4-0-3-8">
      <stop
         id="stop2883-4-0-1-8"
         style="stop-color:#181818;stop-opacity:1"
         offset="0" />
      <stop
         id="stop2885-9-2-9-6"
         style="stop-color:#181818;stop-opacity:0"
         offset="1" />
    </linearGradient>
    <radialGradient
       cx="4.9929786"
       cy="43.5"
       r="2.5"
       fx="4.9929786"
       fy="43.5"
       id="radialGradient3339-1-4"
       xlink:href="#linearGradient3688-464-309-9-2-4-2"
       gradientUnits="userSpaceOnUse"
       gradientTransform="matrix(2.003784,0,0,1.4,-20.01187,-104.4)" />
    <linearGradient
       id="linearGradient3688-464-309-9-2-4-2">
      <stop
         id="stop2889-7-9-6-9"
         style="stop-color:#181818;stop-opacity:1"
         offset="0" />
      <stop
         id="stop2891-6-6-1-7"
         style="stop-color:#181818;stop-opacity:0"
         offset="1" />
    </linearGradient>
    <linearGradient
       id="linearGradient3702-501-757-8-4-1-1">
      <stop
         id="stop2895-8-9-9-1"
         style="stop-color:#181818;stop-opacity:0"
         offset="0" />
      <stop
         id="stop2897-7-8-7-7"
         style="stop-color:#181818;stop-opacity:1"
         offset="0.5" />
      <stop
         id="stop2899-4-5-1-5"
         style="stop-color:#181818;stop-opacity:0"
         offset="1" />
    </linearGradient>
    <linearGradient
       x1="25.058096"
       y1="47.027729"
       x2="25.058096"
       y2="39.999443"
       id="linearGradient6394"
       xlink:href="#linearGradient3702-501-757-8-4-1-1"
       gradientUnits="userSpaceOnUse" />
    <linearGradient
       x1="167.98311"
       y1="8.50811"
       x2="167.98311"
       y2="54.780239"
       id="linearGradient5809-8"
       xlink:href="#linearGradient5803"
       gradientUnits="userSpaceOnUse"
       gradientTransform="translate(-150.98311,-10.001648)" />
    <linearGradient
       x1="27.096104"
       y1="10.880992"
       x2="27.096104"
       y2="39.150768"
       id="linearGradient5801-2"
       xlink:href="#linearGradient3895-9-0-3-5-2-0-4-9"
       gradientUnits="userSpaceOnUse"
       gradientTransform="matrix(1.4102564,0,0,1.4102564,-19.5863,-12.248029)" />
  </defs>
  <metadata
     id="metadata6338">
    <rdf:RDF>
      <cc:Work
         rdf:about="">
        <dc:format>image/svg+xml</dc:format>
        <dc:type
           rdf:resource="http://purl.org/dc/dcmitype/StillImage" />
        <dc:title></dc:title>
      </cc:Work>
    </rdf:RDF>
  </metadata>
  <g
     id="layer1">
    <g
       transform="matrix(1.5789502,0,0,0.7142857,-5.894751,27.928572)"
       id="g3712-8-2-4-4"
       style="opacity:0.6">
      <rect
         width="5"
         height="7"
         x="38"
         y="40"
         id="rect2801-5-5-7-9"
         style="fill:url(#radialGradient3337-2-2);fill-opacity:1;stroke:none" />
      <rect
         width="5"
         height="7"
         x="-10"
         y="-47"
         transform="scale(-1,-1)"
         id="rect3696-3-0-3-7"
         style="fill:url(#radialGradient3339-1-4);fill-opacity:1;stroke:none" />
      <rect
         width="28"
         height="7.0000005"
         x="10"
         y="40"
         id="rect3700-5-6-8-4"
         style="fill:url(#linearGradient6394);fill-opacity:1;stroke:none" />
    </g>
    <rect
       width="55"
       height="55"
       rx="3"
       ry="3"
       x="4.4999986"
       y="4.5000019"
       id="rect5505-21-3-8-5-2"
       style="color:#000000;fill:url(#radialGradient3402-7-1-6);fill-opacity:1;fill-rule:nonzero;stroke:none;stroke-width:0.99999994;marker:none;visibility:visible;display:inline;overflow:visible;enable-background:accumulate" />
    <rect
       width="53"
       height="53.142479"
       rx="2"
       ry="2"
       x="5.4999986"
       y="5.4287739"
       id="rect6741-5-0-2-3"
       style="opacity:0.5;fill:none;stroke:url(#linearGradient3381-5-4);stroke-width:1;stroke-linecap:round;stroke-linejoin:round;stroke-miterlimit:4;stroke-opacity:1;stroke-dasharray:none;stroke-dashoffset:0" />
    <rect
       width="55"
       height="55"
       rx="3"
       ry="3"
       x="4.4999986"
       y="4.5000019"
       id="rect5505-21-3-8-9-1-1"
       style="opacity:0.4;color:#000000;fill:none;stroke:#640000;stroke-width:1;stroke-linecap:round;stroke-linejoin:round;stroke-miterlimit:4;stroke-opacity:1;stroke-dasharray:none;stroke-dashoffset:0;marker:none;visibility:visible;display:inline;overflow:visible;enable-background:accumulate" />
  </g>
  <g
     id="g4185"
     transform="translate(0.54237113,-0.25699775)">
    <path
       inkscape:connector-curvature="0"
       style="color:#000000;clip-rule:nonzero;display:inline;overflow:visible;visibility:visible;opacity:0.15;isolation:auto;mix-blend-mode:normal;color-interpolation:sRGB;color-interpolation-filters:linearRGB;solid-color:#000000;solid-opacity:1;fill:none;fill-opacity:1;fill-rule:nonzero;stroke:url(#linearGradient5801);stroke-width:2;stroke-linecap:butt;stroke-linejoin:miter;stroke-miterlimit:4;stroke-dasharray:none;stroke-dashoffset:0;stroke-opacity:1;marker:none;color-rendering:auto;image-rendering:auto;shape-rendering:auto;text-rendering:auto;enable-background:accumulate;filter-blend-mode:normal;filter-gaussianBlur-deviation:0"
       d="m 15.632965,37.446875 c -2.938029,2.938029 -2.938029,7.668573 -1e-6,10.606601 2.938029,2.938029 7.668573,2.938029 10.606602,0 l 4.242641,-4.24264 c 1.737257,-1.737258 2.421973,-4.097842 2.104746,-6.347388 l -4.226067,4.226067 -1.06066,1.06066 -3.18198,3.181981 c -1.762818,1.762817 -4.601144,1.762817 -6.363961,0 -1.762817,-1.762817 -1.762817,-4.601144 0,-6.363961 l 3.18198,-3.18198 1.060661,-1.060661 4.226066,-4.226066 c -2.249545,-0.317227 -4.610129,0.367489 -6.347387,2.104746 z M 32.433048,20.646791 c -1.73726,1.73726 -2.421973,4.097842 -2.104748,6.347389 l 4.226069,-4.226069 1.06066,-1.06066 3.18198,-3.18198 c 1.762818,-1.762818 4.601144,-1.762818 6.363961,-1e-6 1.762817,1.762818 1.762816,4.601144 0,6.363961 l -3.18198,3.181981 -1.060661,1.06066 -4.226069,4.226069 c 2.249548,0.317224 4.61013,-0.367489 6.34739,-2.104749 l 4.24264,-4.24264 c 2.938029,-2.938029 2.938029,-7.668573 0,-10.606602 -2.938028,-2.938028 -7.668573,-2.938028 -10.606601,0 z m -8.314802,16.800084 c -0.587606,0.587606 -0.587606,1.533714 0,2.12132 0.587605,0.587606 1.533714,0.587606 2.12132,0 L 38.797009,27.010752 c 0.587606,-0.587606 0.587606,-1.533715 0,-2.121321 -0.587605,-0.587605 -1.533714,-0.587605 -2.12132,1e-6 z"
       id="path4226" />
    <path
       id="path4548"
       d="m 15.632965,37.446875 c -2.938029,2.938029 -2.938029,7.668573 -1e-6,10.606601 2.938029,2.938029 7.668573,2.938029 10.606602,0 l 4.242641,-4.24264 c 1.737257,-1.737258 2.421973,-4.097842 2.104746,-6.347388 l -4.226067,4.226067 -1.06066,1.06066 -3.18198,3.181981 c -1.762818,1.762817 -4.601144,1.762817 -6.363961,0 -1.762817,-1.762817 -1.762817,-4.601144 0,-6.363961 l 3.18198,-3.18198 1.060661,-1.060661 4.226066,-4.226066 c -2.249545,-0.317227 -4.610129,0.367489 -6.347387,2.104746 z M 32.433048,20.646791 c -1.73726,1.73726 -2.421973,4.097842 -2.104748,6.347389 l 4.226069,-4.226069 1.06066,-1.06066 3.18198,-3.18198 c 1.762818,-1.762818 4.601144,-1.762818 6.363961,-1e-6 1.762817,1.762818 1.762816,4.601144 0,6.363961 l -3.18198,3.181981 -1.060661,1.06066 -4.226069,4.226069 c 2.249548,0.317224 4.61013,-0.367489 6.34739,-2.104749 l 4.24264,-4.24264 c 2.938029,-2.938029 2.938029,-7.668573 0,-10.606602 -2.938028,-2.938028 -7.668573,-2.938028 -10.606601,0 z m -8.314802,16.800084 c -0.587606,0.587606 -0.587606,1.533714 0,2.12132 0.587605,0.587606 1.533714,0.587606 2.12132,0 L 38.797009,27.010752 c 0.587606,-0.587606 0.587606,-1.533715 0,-2.121321 -0.587605,-0.587605 -1.533714,-0.587605 -2.12132,1e-6 z"
       style="color:#000000;clip-rule:nonzero;display:inline;overflow:visible;visibility:visible;opacity:0.3;isolation:auto;mix-blend-mode:normal;color-interpolation:sRGB;color-interpolation-filters:linearRGB;solid-color:#000000;solid-opacity:1;fill:#ae2109;fill-opacity:1;fill-rule:nonzero;stroke:none;stroke-width:1;stroke-linecap:butt;stroke-linejoin:miter;stroke-miterlimit:4;stroke-dasharray:none;stroke-dashoffset:0;stroke-opacity:1;marker:none;color-rendering:auto;image-rendering:auto;shape-rendering:auto;text-rendering:auto;enable-background:accumulate;filter-blend-mode:normal;filter-gaussianBlur-deviation:0"
       inkscape:connector-curvature="0" />
    <path
       style="opacity:1;fill:url(#linearGradient5809);fill-opacity:1;stroke:none;stroke-width:1;stroke-linecap:butt;stroke-linejoin:miter;stroke-miterlimit:4;stroke-dasharray:none;stroke-opacity:1;color:#000000;clip-rule:nonzero;display:inline;overflow:visible;visibility:visible;isolation:auto;mix-blend-mode:normal;color-interpolation:sRGB;color-interpolation-filters:linearRGB;solid-color:#000000;solid-opacity:1;fill-rule:nonzero;stroke-dashoffset:0;filter-blend-mode:normal;filter-gaussianBlur-deviation:0;color-rendering:auto;image-rendering:auto;shape-rendering:auto;text-rendering:auto;enable-background:accumulate"
       d="m 15.632965,36.446875 c -2.938029,2.938029 -2.938029,7.668573 -1e-6,10.606601 2.938029,2.938029 7.668573,2.938029 10.606602,0 l 4.242641,-4.24264 c 1.737257,-1.737258 2.421973,-4.097842 2.104746,-6.347388 l -4.226067,4.226067 -1.06066,1.06066 -3.18198,3.181981 c -1.762818,1.762817 -4.601144,1.762817 -6.363961,0 -1.762817,-1.762817 -1.762817,-4.601144 0,-6.363961 l 3.18198,-3.18198 1.060661,-1.060661 4.226066,-4.226066 c -2.249545,-0.317227 -4.610129,0.367489 -6.347387,2.104746 z M 32.433048,19.646791 c -1.73726,1.73726 -2.421973,4.097842 -2.104748,6.347389 l 4.226069,-4.226069 1.06066,-1.06066 3.18198,-3.18198 c 1.762818,-1.762818 4.601144,-1.762818 6.363961,-1e-6 1.762817,1.762818 1.762816,4.601144 0,6.363961 l -3.18198,3.181981 -1.060661,1.06066 -4.226069,4.226069 c 2.249548,0.317224 4.61013,-0.367489 6.34739,-2.104749 l 4.24264,-4.24264 c 2.938029,-2.938029 2.938029,-7.668573 0,-10.606602 -2.938028,-2.938028 -7.668573,-2.938028 -10.606601,0 z m -8.314802,16.800084 c -0.587606,0.587606 -0.587606,1.533714 0,2.12132 0.587605,0.587606 1.533714,0.587606 2.12132,0 L 38.797009,26.010752 c 0.587606,-0.587606 0.587606,-1.533715 0,-2.121321 -0.587605,-0.587605 -1.533714,-0.587605 -2.12132,1e-6 z"
       id="rect4753"
       inkscape:connector-curvature="0" />
  </g>
</svg>
